<?xml version="1.0" encoding="utf-8"?>
<svg width="167px" height="50px" viewBox="0 0 167 50" version="1.1" 
    xmlns:xlink="http://www.w3.org/1999/xlink" 
    xmlns="http://www.w3.org/2000/svg">
    <desc>Created with Lunacy</desc>
    <defs>
        <linearGradient x1="0.914884269" y1="0.0494812466" x2="-0.383517325" y2="0.719074249" id="gradient_1">
            <stop offset="0" stop-color="#00A0FF" />
            <stop offset="0.01" stop-color="#00A1FF" />
            <stop offset="0.26" stop-color="#00BEFF" />
            <stop offset="0.51" stop-color="#00D2FF" />
            <stop offset="0.76" stop-color="#00DFFF" />
            <stop offset="1" stop-color="#00E3FF" />
        </linearGradient>
        <linearGradient x1="1.07684731" y1="0.5" x2="-1.306404" y2="0.5" id="gradient_2">
            <stop offset="0" stop-color="#FFE000" />
            <stop offset="0.41" stop-color="#FFBD00" />
            <stop offset="0.78" stop-color="#FFA500" />
            <stop offset="1" stop-color="#FF9C00" />
        </linearGradient>
        <linearGradient x1="0.8621929" y1="0.178768888" x2="-0.5014979" y2="1.94702637" id="gradient_3">
            <stop offset="0" stop-color="#FF3A44" />
            <stop offset="1" stop-color="#C31162" />
        </linearGradient>
        <linearGradient x1="-0.187537447" y1="-0.5405215" x2="0.421210319" y2="0.249170661" id="gradient_4">
            <stop offset="0" stop-color="#32A071" />
            <stop offset="0.07" stop-color="#2DA771" />
            <stop offset="0.48" stop-color="#15CF74" />
            <stop offset="0.8" stop-color="#06E775" />
            <stop offset="1" stop-color="#00F076" />
        </linearGradient>
    </defs>
    <g id="Google-Play-Badge-US" transform="translate(0.1000004 0.09997559)">
        <path d="M4.999 0L161.001 0Q161.124 0 161.246 0.00602151Q161.369 0.012043 161.491 0.0240715Q161.613 0.0361001 161.734 0.0541066Q161.856 0.0721132 161.976 0.0960544Q162.097 0.119996 162.216 0.149814Q162.335 0.179632 162.452 0.215255Q162.57 0.250879 162.685 0.292221Q162.801 0.333564 162.914 0.380526Q163.027 0.427489 163.138 0.479957Q163.249 0.532426 163.358 0.590276Q163.466 0.648125 163.571 0.711215Q163.676 0.774305 163.778 0.842483Q163.88 0.910662 163.979 0.983765Q164.077 1.05687 164.172 1.13472Q164.267 1.21257 164.358 1.29499Q164.449 1.3774 164.536 1.46417Q164.623 1.55095 164.705 1.64188Q164.787 1.73281 164.865 1.82767Q164.943 1.92253 165.016 2.0211Q165.089 2.11967 165.158 2.2217Q165.226 2.32374 165.289 2.429Q165.352 2.53426 165.41 2.64249Q165.468 2.75072 165.52 2.86165Q165.572 2.97259 165.619 3.08597Q165.666 3.19934 165.708 3.31489Q165.749 3.43043 165.785 3.54787Q165.82 3.6653 165.85 3.78434Q165.88 3.90338 165.904 4.02374Q165.928 4.1441 165.946 4.26549Q165.964 4.38688 165.976 4.50901Q165.988 4.63114 165.994 4.75371Q166 4.87628 166 4.999L166 44.001Q166 44.1237 165.994 44.2463Q165.988 44.3689 165.976 44.491Q165.964 44.6131 165.946 44.7345Q165.928 44.8559 165.904 44.9763Q165.88 45.0966 165.85 45.2157Q165.82 45.3347 165.785 45.4521Q165.749 45.5696 165.708 45.6851Q165.666 45.8007 165.619 45.914Q165.572 46.0274 165.52 46.1383Q165.468 46.2493 165.41 46.3575Q165.352 46.4657 165.289 46.571Q165.226 46.6763 165.158 46.7783Q165.089 46.8803 165.016 46.9789Q164.943 47.0775 164.865 47.1723Q164.787 47.2672 164.705 47.3581Q164.623 47.449 164.536 47.5358Q164.449 47.6226 164.358 47.705Q164.267 47.7874 164.172 47.8653Q164.077 47.9431 163.979 48.0162Q163.88 48.0893 163.778 48.1575Q163.676 48.2257 163.571 48.2888Q163.466 48.3519 163.358 48.4097Q163.249 48.4676 163.138 48.52Q163.027 48.5725 162.914 48.6195Q162.801 48.6664 162.685 48.7078Q162.57 48.7491 162.452 48.7847Q162.335 48.8204 162.216 48.8502Q162.097 48.88 161.976 48.9039Q161.856 48.9279 161.735 48.9459Q161.613 48.9639 161.491 48.9759Q161.369 48.988 161.246 48.994Q161.124 49 161.001 49L4.999 49Q4.87628 49 4.75371 48.994Q4.63114 48.988 4.50901 48.9759Q4.38688 48.9639 4.26549 48.9459Q4.1441 48.9279 4.02374 48.9039Q3.90338 48.88 3.78434 48.8502Q3.6653 48.8204 3.54787 48.7847Q3.43043 48.7491 3.31489 48.7078Q3.19934 48.6664 3.08597 48.6195Q2.97259 48.5725 2.86165 48.52Q2.75072 48.4676 2.64249 48.4097Q2.53426 48.3519 2.429 48.2888Q2.32374 48.2257 2.2217 48.1575Q2.11967 48.0893 2.0211 48.0162Q1.92253 47.9431 1.82767 47.8653Q1.73281 47.7874 1.64188 47.705Q1.55095 47.6226 1.46417 47.5358Q1.3774 47.449 1.29499 47.3581Q1.21257 47.2672 1.13472 47.1723Q1.05687 47.0775 0.983765 46.9789Q0.910662 46.8803 0.842483 46.7783Q0.774305 46.6763 0.711215 46.571Q0.648125 46.4657 0.590276 46.3575Q0.532426 46.2493 0.479957 46.1383Q0.427489 46.0274 0.380526 45.914Q0.333564 45.8007 0.292221 45.6851Q0.250879 45.5696 0.215255 45.4521Q0.179632 45.3347 0.149814 45.2157Q0.119996 45.0966 0.0960544 44.9763Q0.0721132 44.8559 0.0541066 44.7345Q0.0361001 44.6131 0.0240715 44.491Q0.012043 44.3689 0.00602151 44.2463Q0 44.1237 0 44.001L0 4.999Q0 4.87628 0.00602151 4.75371Q0.012043 4.63114 0.0240716 4.50901Q0.0361001 4.38688 0.0541066 4.26549Q0.0721132 4.1441 0.0960544 4.02374Q0.119996 3.90338 0.149814 3.78434Q0.179632 3.6653 0.215255 3.54787Q0.250879 3.43043 0.292221 3.31489Q0.333564 3.19934 0.380526 3.08597Q0.427489 2.97259 0.479958 2.86165Q0.532426 2.75072 0.590276 2.64249Q0.648125 2.53426 0.711215 2.429Q0.774305 2.32374 0.842483 2.2217Q0.910662 2.11967 0.983766 2.0211Q1.05687 1.92253 1.13472 1.82767Q1.21257 1.73281 1.29499 1.64188Q1.3774 1.55095 1.46417 1.46417Q1.55095 1.3774 1.64188 1.29499Q1.73281 1.21257 1.82767 1.13472Q1.92253 1.05687 2.0211 0.983765Q2.11967 0.910662 2.2217 0.842483Q2.32374 0.774305 2.429 0.711215Q2.53426 0.648125 2.64249 0.590276Q2.75072 0.532426 2.86165 0.479957Q2.97259 0.427489 3.08597 0.380526Q3.19934 0.333564 3.31489 0.292221Q3.43043 0.250879 3.54787 0.215255Q3.6653 0.179632 3.78434 0.149814Q3.90338 0.119996 4.02374 0.0960544Q4.1441 0.0721132 4.26549 0.0541066Q4.38689 0.0361001 4.50901 0.0240715Q4.63114 0.012043 4.75371 0.00602151Q4.87628 0 4.999 0L4.999 0Z" id="Background-Black" fill="#000000" stroke="none" />
        <path d="M8.40728 7.48984L8.40728 9.7127L13.6962 9.7127C13.6133 10.7597 13.1818 11.7476 12.4719 12.516C11.4019 13.6153 9.92117 14.2074 8.39503 14.1461C5.14947 14.1461 2.51843 11.4922 2.51843 8.21844C2.51843 4.9447 5.14947 2.29081 8.39503 2.29081C9.88597 2.26628 11.3257 2.83918 12.3985 3.88386L13.9533 2.31551C12.4902 0.821074 10.4895 -0.0120107 8.40728 0.00619932C5.44322 -0.110156 2.65358 1.41855 1.13725 3.99014C-0.379084 6.56172 -0.379084 9.76402 1.13725 12.3356C2.65358 14.9072 5.44322 16.4359 8.40728 16.3195C10.5275 16.4162 12.5855 15.5831 14.0513 14.0349C15.3339 12.6134 16.0188 10.7448 15.9612 8.82356C15.9651 8.35551 15.9241 7.88817 15.8387 7.42809L8.40728 7.48984ZM74.617 0.623661L69.1322 0.623661L69.1322 16.0602L71.4216 16.0602L71.4216 10.2067L74.617 10.2067C76.3955 10.3356 78.0964 9.45153 79.0246 7.91585C79.9528 6.38018 79.9528 4.45015 79.0246 2.91448C78.0964 1.37881 76.3955 0.49478 74.617 0.623661ZM53.4123 16.0602L51.1228 16.0602L51.1228 0.623661L53.4123 0.623661L53.4123 16.0602ZM83.1626 16.0602L80.8731 16.0602L80.8731 0.623661L83.1626 0.623661L83.1626 16.0602ZM71.4093 8.03321L74.6048 8.03321L74.6537 8.07025C76.1041 8.07025 77.2798 6.8843 77.2798 5.42134C77.2798 3.95839 76.1041 2.77243 74.6537 2.77243L71.4093 2.77243L71.4093 8.03321ZM88.7208 5.81034C87.0175 5.70765 85.4161 6.63415 84.6439 8.16905L86.6763 9.02115C87.0857 8.26002 87.9019 7.81445 88.7576 7.88502C89.3446 7.81585 89.9347 7.98748 90.3951 8.36134C90.8555 8.7352 91.1477 9.27995 91.2061 9.87324L91.2061 10.0338C90.4708 9.64108 89.6508 9.43747 88.8188 9.44102C86.6273 9.44102 84.4113 10.6759 84.4113 12.9112C84.455 13.874 84.883 14.7782 85.5978 15.4178C86.3127 16.0575 87.2536 16.3782 88.2066 16.3072C89.381 16.3923 90.5078 15.824 91.1449 14.8253L91.2184 14.8253L91.2184 16.0602L93.4221 16.0602L93.4221 10.1202C93.4221 7.41574 91.3898 5.84739 88.782 5.84739L88.7208 5.81034ZM47.3765 7.04527L47.2908 7.04527C46.5929 6.25822 45.5952 5.80896 44.5484 5.81034C41.7694 5.94627 39.5855 8.25856 39.5855 11.0649C39.5855 13.8713 41.7694 16.1836 44.5484 16.3195C45.5986 16.3374 46.6028 15.8852 47.2908 15.0846L47.3643 15.0846L47.3643 15.8379C47.3643 17.8509 46.2991 18.9252 44.5851 18.9252C43.4175 18.8977 42.3823 18.1609 41.9651 17.0605L39.9695 17.9002C40.738 19.7857 42.5641 21.0121 44.5851 20.9999C47.2663 20.9999 49.4823 19.4069 49.4823 15.5292L49.4823 6.18082L47.3765 6.18082L47.3765 7.04527ZM21.9847 5.87209C19.1126 5.87891 16.7892 8.23172 16.7937 11.1287C16.7982 14.0257 19.1289 16.3712 22.001 16.3689C24.8731 16.3667 27.2001 14.0175 27.2002 11.1205C27.2203 9.71811 26.6752 8.36751 25.6897 7.37808C24.7042 6.38866 23.3627 5.84516 21.9724 5.87209L21.9847 5.87209ZM33.3828 5.87209C30.5124 5.88571 28.1951 8.24152 28.2041 11.1369C28.2131 14.0323 30.545 16.3734 33.4154 16.3689C36.2859 16.3644 38.6105 14.0159 38.6106 11.1205C38.6307 9.71811 38.0856 8.36751 37.1001 7.37808C36.1146 6.38866 34.7731 5.84516 33.3828 5.87209ZM59.4235 5.87209C61.4533 5.94748 63.2263 7.27893 63.88 9.21873L64.1371 9.77445L57.1708 12.6765C57.6075 13.6795 58.6077 14.3113 59.6929 14.2696C60.7407 14.2722 61.7126 13.7187 62.2516 12.8124L64.0269 14.0473C63.0605 15.5063 61.4324 16.3784 59.6929 16.3689C58.3101 16.3894 56.9785 15.8418 56.0041 14.8519C55.0297 13.8621 54.4963 12.5151 54.5264 11.1205C54.4418 9.75781 54.9201 8.42055 55.8478 7.42628C56.7756 6.43201 58.0699 5.86942 59.4235 5.87209ZM101.453 6.18082L98.8335 12.8741L98.76 12.8741L96.0421 6.18082L93.5935 6.18082L97.6704 15.5415L95.3443 20.7406L97.7316 20.7406L104 6.18082L101.453 6.18082ZM56.7791 10.9723C56.7289 10.2007 56.9888 9.4412 57.5001 8.86504C58.0114 8.28888 58.7311 7.94457 59.497 7.90971C60.3042 7.85606 61.0654 8.29338 61.4314 9.02115L56.7791 10.9723ZM41.864 11.1205C41.864 12.7769 43.1175 14.159 44.7527 14.3063L44.7443 14.3066L44.7565 14.3066L44.7527 14.3063C45.5452 14.2732 46.2903 13.9157 46.8157 13.316C47.343 12.7141 47.6031 11.9208 47.5356 11.1205C47.5961 10.3239 47.3351 9.53638 46.8119 8.93655C46.2887 8.33671 45.5475 7.97536 44.7565 7.93441C43.1195 8.07994 41.864 9.46288 41.864 11.1205ZM30.3123 12.5017C30.8714 13.6821 32.089 14.3979 33.3828 14.3066C34.1949 14.2876 34.9649 13.9386 35.5182 13.3387C36.0714 12.7388 36.361 11.9389 36.3211 11.1205C36.318 9.8123 35.5223 8.63898 34.3148 8.16174C33.1072 7.6845 31.7331 8.00035 30.8497 8.95821C29.9664 9.91607 29.7533 11.3213 30.3123 12.5017ZM18.906 12.5112C19.469 13.6909 20.6902 14.403 21.9847 14.3066L21.9724 14.3066C22.7845 14.2876 23.5545 13.9386 24.1078 13.3387C24.661 12.7388 24.9506 11.9389 24.9107 11.1205C24.9072 9.81125 24.11 8.63744 22.9009 8.16126C21.6918 7.68508 20.3169 8.00348 19.4349 8.96396C18.5528 9.92445 18.343 11.3315 18.906 12.5112ZM86.6518 12.9606C86.6518 13.8867 87.6924 14.2696 88.4392 14.2696L88.5005 14.3066C89.8797 14.2727 91.0234 13.2192 91.1817 11.8368C90.5464 11.4791 89.8276 11.3 89.1004 11.3181C87.9495 11.3181 86.6518 11.7256 86.6518 12.9606Z" transform="translate(50 21)" id="Google-Play" fill="#FFFFFF" fill-rule="evenodd" stroke="none" />
        <path d="M34.4147 1.16724C32.9577 2.75858 32.9577 5.24667 34.4147 6.83801C35.9177 8.38024 38.3458 8.38024 39.8488 6.83801C41.312 5.24923 41.312 2.75603 39.8488 1.16724C39.13 0.420164 38.152 0 37.1317 0C36.1115 0 35.1334 0.420164 34.4147 1.16724ZM7.50335 4.31484C7.54578 5.25941 7.21098 6.18062 6.57708 6.8635C5.86873 7.62275 4.88074 8.03515 3.86001 7.99765C2.29441 7.98501 0.88871 7.00522 0.292862 5.51132C-0.302987 4.01742 0.0271371 2.30053 1.13059 1.1545C1.84757 0.399238 2.83565 -0.0159515 3.86001 0.00760397C4.38213 0.00580899 4.89909 0.114225 5.3791 0.326186C5.826 0.512179 6.22384 0.804769 6.54003 1.17999L5.88546 1.85538C5.3857 1.24202 4.63547 0.906885 3.86001 0.950608C3.08052 0.946662 2.33312 1.27058 1.79014 1.84766C1.24717 2.42474 0.955501 3.20517 0.982389 4.009C0.965842 5.22368 1.65916 6.32935 2.73976 6.81158C3.82035 7.29381 5.07601 7.05789 5.92251 6.21359C6.30254 5.78865 6.52173 5.23682 6.54003 4.65891L3.86001 4.65891L3.86001 3.74139L7.45395 3.74139C7.48689 3.93064 7.50342 4.12255 7.50335 4.31484ZM9.82521 1.12901L13.1598 1.12901L13.1598 0.18601L8.83718 0.18601L8.83718 7.83199L13.1598 7.83199L13.1598 6.88898L9.82521 6.88898L9.82521 4.46776L12.8634 4.46776L12.8634 3.55024L9.82521 3.55024L9.82521 1.12901ZM17.2107 7.83199L16.2597 7.83199L16.2597 1.12901L14.1849 1.12901L14.1849 0.18601L19.3349 0.18601L19.3349 1.12901L17.2107 1.12901L17.2107 7.83199ZM23.9169 0.18601L22.9659 0.18601L22.9659 7.83199L23.9169 7.83199L23.9169 0.18601ZM28.1407 7.83199L27.1897 7.83199L27.1897 1.12901L25.1149 1.12901L25.1149 0.18601L30.2032 0.18601L30.2032 1.12901L28.1407 1.12901L28.1407 7.83199ZM43.4427 0.18601L42.2818 0.18601L42.2818 7.83199L43.2451 7.83199L43.2451 1.60052L47.012 7.83199L48 7.83199L48 0.18601L47.049 0.18601L47.049 6.13713L43.4427 0.18601ZM35.1186 6.20084C36.2318 7.34464 38.0317 7.34464 39.1448 6.20084C40.2381 4.95732 40.2381 3.06068 39.1448 1.81715C38.0317 0.673358 36.2318 0.673358 35.1186 1.81715C34.0254 3.06068 34.0254 4.95732 35.1186 6.20084Z" transform="translate(51 8)" id="GET-IT-ON" fill="#FFFFFF" fill-rule="evenodd" stroke="#FFFFFF" stroke-width="0.2" />
        <g id="Icon" transform="translate(11 9)">
            <path d="M0.574842 0.0861538C0.170682 0.567518 -0.0333115 1.18375 0.00444194 1.80923L0.00444194 29.0338C-0.0333115 29.6593 0.170682 30.2756 0.574842 30.7569L0.661642 30.8431L16.0252 15.6062L16.0252 15.2492L0.661642 0L0.574842 0.0861538Z" transform="translate(1.210758 0.5784615)" id="Shape" fill="url(#gradient_1)" stroke="none" />
            <path d="M5.084 10.5354L0 5.45231L0 5.09539L5.084 0L5.1956 0.0615385L11.284 3.49538C13.02 4.46769 13.02 6.06769 11.284 7.05231L5.2204 10.4738L5.084 10.5354Z" transform="translate(17.236 10.73231)" id="Shape" fill="url(#gradient_2)" stroke="none" />
            <path d="M20.6832 5.19385L15.4504 0L0 15.3354C0.73001 15.9723 1.81341 16.0034 2.5792 15.4092L20.6956 5.19385" transform="translate(1.7856 16)" id="Shape" fill="url(#gradient_3)" stroke="none" />
            <path d="M20.6956 10.641L2.5792 0.425567C1.81341 -0.168557 0.73001 -0.137537 0 0.499413L15.4628 15.8348L20.6956 10.641Z" transform="translate(1.7732 0.1652021)" id="Shape" fill="url(#gradient_4)" stroke="none" />
            <path d="M20.5344 0L2.5668 10.1538C1.83153 10.6995 0.822072 10.6995 0.0868 10.1538L0 10.24L0.0868 10.3262C0.820689 10.8759 1.83291 10.8759 2.5668 10.3262L20.6832 0.110769L20.5344 0Z" transform="translate(1.7856 21.08308)" id="Shape" fill="#000000" fill-opacity="0.2" stroke="none" />
            <path d="M21.1092 5.08308L27.3092 1.6C27.95 1.2861 28.4079 0.695185 28.5492 0C28.4853 0.768492 28.0124 1.44445 27.3092 1.77231L21.2208 5.19385L21.1092 5.08308ZM0.00174428 13.6796C0.0222198 14.2211 0.222441 14.7434 0.574842 15.1631L0.661642 15.2615L0.574842 15.3477C0.182528 14.8804 -0.0211815 14.2861 0.00174428 13.6796L0.00174428 13.6796ZM0.00174428 13.6796C0.00243652 13.6613 0.00333539 13.6429 0.00444194 13.6246L0.00444194 13.44C-0.000392919 13.5201 -0.00126303 13.6001 0.00174428 13.6796L0.00174428 13.6796Z" transform="translate(1.210758 16)" id="Shape" fill="#000000" fill-opacity="0.12" fill-rule="evenodd" stroke="none" />
            <path d="M3.1496 0.583312L27.3172 14.2202C27.9579 14.5341 28.4159 15.125 28.5572 15.8202C28.4933 15.0517 28.0204 14.3758 27.3172 14.0479L3.1496 0.411005C1.4136 -0.561303 0 0.251005 0 2.22024L0 2.40485C0.0372 0.423312 1.426 -0.388995 3.1496 0.583312L3.1496 0.583312Z" transform="translate(1.2028 0.1797646)" id="Shape" fill="#FFFFFF" fill-opacity="0.25" stroke="none" />
        </g>
    </g>
</svg>