<?xml version="1.0" encoding="utf-8"?>
<svg width="144px" height="47px" viewBox="0 0 144 47" version="1.1" xmlns:xlink="http://www.w3.org/1999/xlink" xmlns="http://www.w3.org/2000/svg">
  <desc>Created with Lunacy</desc>
  <g id="App-Store-Badge-US-Black">
    <path d="M9.24661 46.9975C8.87454 46.9975 8.51145 46.9927 8.1423 46.9844C7.37757 46.9744 6.61463 46.9074 5.85973 46.784C5.15583 46.662 4.47393 46.4351 3.83654 46.1108C3.205 45.7892 2.62897 45.3674 2.13054 44.8617C1.6249 44.362 1.20393 43.7823 0.88431 43.1458C0.561171 42.5052 0.33754 41.8185 0.221206 41.1096C0.0955754 40.348 0.0276042 39.5778 0.0178782 38.8058C0.0101359 38.5467 0 37.6839 0 37.6839L0 9.3004C0 9.3004 0.0107953 8.45087 0.0179392 8.20129C0.0272518 7.4305 0.0948278 6.66155 0.220082 5.90109C0.336631 5.19031 0.560436 4.50163 0.883749 3.85887C1.20219 3.2228 1.62083 2.64275 2.12342 2.14122C2.62546 1.63493 3.20332 1.21101 3.83594 0.884918C4.47187 0.561628 5.15248 0.336334 5.85496 0.216582C6.61233 0.0919507 7.37792 0.0245691 8.1453 0.0150024L9.24721 0L134.747 0L135.862 0.0156044C136.622 0.0246958 137.381 0.0914763 138.131 0.215378C138.841 0.336632 139.529 0.563498 140.172 0.888518C141.439 1.54568 142.47 2.58537 143.121 3.86187C143.439 4.50019 143.659 5.18325 143.775 5.88789C143.901 6.6546 143.972 7.42959 143.987 8.20669C143.99 8.55466 143.99 8.92843 143.99 9.3004C144 9.76116 144 10.1997 144 10.6419L144 36.3568C144 36.8032 144 37.2388 143.99 37.6779C143.99 38.0775 143.99 38.4435 143.986 38.8202C143.971 39.5835 143.902 40.3446 143.777 41.0976C143.663 41.8115 143.441 42.5036 143.117 43.1495C142.796 43.7791 142.377 44.3537 141.877 44.8521C141.378 45.3605 140.801 45.7848 140.168 46.1085C139.527 46.4353 138.84 46.663 138.131 46.784C137.376 46.908 136.613 46.975 135.849 46.9844C135.491 46.9927 135.116 46.9975 134.753 46.9975L133.429 47L9.24661 46.9975Z" id="Background-Black" fill="#000000" stroke="none" />
    <path d="M49.3359 13.6296C47.3322 13.6296 45.8659 12.6461 45.6972 11.1482L43.3655 11.1481C43.5127 13.8802 45.7917 15.6085 49.1671 15.6085C52.7747 15.6085 55.0429 13.8386 55.0429 11.0127C55.0429 8.80328 53.7454 7.55837 50.6226 6.82546L48.9457 6.41683C46.9839 5.93579 46.1819 5.3074 46.1819 4.23951C46.1819 2.8996 47.4375 1.979 49.2724 1.979C51.1074 1.979 52.363 2.88889 52.5006 4.3963L54.8 4.3963C54.7258 1.79012 52.521 0 49.3048 0C46.0551 0 43.7665 1.79012 43.7665 4.3963C43.7665 6.50121 45.064 7.79836 47.8589 8.46832L49.8314 8.93991C51.804 9.42101 52.6371 10.123 52.6371 11.2954C52.6371 12.6461 51.2558 13.6296 49.3359 13.6296ZM3.85059 11.2741L9.65221 11.2741L11.0442 15.3568L13.5435 15.3568L8.04829 0.251863L5.4952 0.251863L0 15.3568L2.45734 15.3568L3.85059 11.2741ZM59.9588 1.73791L59.9588 4.3441L62.069 4.3441L62.069 6.13421L59.9588 6.13421L59.9588 12.2054C59.9588 13.1486 60.3814 13.5881 61.309 13.5881C61.5595 13.5837 61.8096 13.5663 62.0583 13.5358L62.0583 15.3152C61.6412 15.3925 61.2173 15.4276 60.7931 15.4197C58.5464 15.4197 57.6703 14.5823 57.6703 12.4465L57.6703 6.13421L56.0568 6.13421L56.0568 4.3441L57.6702 4.3441L57.6702 1.73791L59.9588 1.73791ZM4.45145 9.39016L9.05019 9.39016L6.78317 2.76423L6.71973 2.76423L4.45145 9.39016ZM91.8731 12.1223C91.5667 14.1214 89.6049 15.4934 87.0949 15.4934C83.8667 15.4934 81.863 13.3469 81.863 9.90331C81.863 6.449 83.8775 4.20868 86.9991 4.20868C90.0693 4.20868 92 6.3017 92 9.6408L92 10.4153L84.1624 10.4153L84.1624 10.5519C84.0892 11.3718 84.3745 12.1833 84.9456 12.7801C85.5168 13.377 86.3187 13.7015 87.1476 13.6712C88.2529 13.774 89.2951 13.1441 89.7102 12.1222L91.8731 12.1223ZM68.5542 4.20869C65.3475 4.20869 63.2912 6.38605 63.2912 9.85106C63.2912 13.3256 65.3271 15.4934 68.5542 15.4934C71.7824 15.4934 73.8184 13.3256 73.8184 9.85106C73.8184 6.386 71.7716 4.20869 68.5542 4.20869ZM20.7803 15.472C23.5656 15.472 25.4113 13.2733 25.4113 9.85106C25.4113 6.43831 23.5547 4.22888 20.7384 4.22887C19.2891 4.18249 17.9316 4.93052 17.205 6.17579L17.1631 6.17579L17.1631 4.34409L14.9583 4.34409L14.9583 19L17.236 19L17.236 13.5453L17.2888 13.5453C17.9844 14.7984 19.3406 15.5468 20.7803 15.472ZM32.9939 15.472C35.7792 15.472 37.6249 13.2733 37.6249 9.85106C37.6249 6.43831 35.7685 4.22888 32.952 4.22888C31.5028 4.18249 30.1452 4.93052 29.4186 6.17579L29.3767 6.17579L29.3767 4.3441L27.1719 4.3441L27.1719 19L29.4497 19L29.4497 13.5453L29.5024 13.5453C30.1981 14.7984 31.5542 15.5468 32.9939 15.472ZM77.8688 4.34409L75.6963 4.34409L75.6963 15.3568L77.9741 15.3568L77.9741 8.82472C77.8983 8.16387 78.1173 7.50314 78.5736 7.01602C79.03 6.5289 79.678 6.26404 80.3477 6.291C80.694 6.28097 81.0397 6.32711 81.3711 6.4276L81.3711 4.3132C81.115 4.25624 80.8532 4.22795 80.5907 4.22886C79.3386 4.18141 78.2245 5.01187 77.9215 6.21853L77.8688 6.21853L77.8688 4.34409ZM89.721 8.83542L84.1731 8.83542C84.1712 8.0919 84.4686 7.37841 84.9993 6.85355C85.53 6.32868 86.2499 6.03593 86.9991 6.04037C87.7425 6.02452 88.4588 6.31713 88.9754 6.8477C89.4921 7.37828 89.7623 8.09871 89.721 8.83542ZM71.4975 9.85106C71.4975 7.47414 70.3999 6.07126 68.5542 6.07126C66.7085 6.07126 65.6121 7.48483 65.6121 9.85106C65.6121 12.2375 66.7085 13.6297 68.5542 13.6297C70.3999 13.6297 71.4974 12.2375 71.4975 9.85106ZM23.07 9.85106C23.07 7.62144 21.909 6.1556 20.1375 6.1556C18.3971 6.1556 17.2265 7.65231 17.2265 9.85106C17.2265 12.07 18.3971 13.556 20.1375 13.556C21.909 13.556 23.07 12.1009 23.07 9.85106ZM35.2837 9.85106C35.2837 7.62144 34.1226 6.1556 32.3512 6.1556C30.6108 6.1556 29.4402 7.65231 29.4402 9.85106C29.4402 12.07 30.6108 13.556 32.3512 13.556C34.1227 13.556 35.2837 12.1009 35.2837 9.85106Z" transform="translate(41 21)" id="App-Store" fill="#FFFFFF" fill-rule="evenodd" stroke="none" />
    <path d="M28.7941 0L29.8866 0L29.8866 7.87712L28.7941 7.87712L28.7941 0ZM46.1564 2.11766C44.7579 2.11766 43.8587 3.25174 43.8587 5.04194C43.8587 6.83644 44.7482 7.97055 46.1564 7.97048C46.8704 7.99742 47.54 7.61667 47.8948 6.98201L47.9812 6.98201L47.9812 7.87712L49.028 7.87712L49.028 0L47.9356 0L47.9356 3.11162L47.854 3.11162C47.5241 2.47165 46.8626 2.08436 46.1564 2.11766ZM74.8833 0L73.8005 0L73.8005 7.8771L74.893 7.8771L74.893 4.56825C74.8592 4.17949 74.9948 3.79528 75.2635 3.51836C75.5323 3.24143 75.9067 3.10001 76.2868 3.13192C77.0587 3.13192 77.4705 3.59022 77.4705 4.49515L77.4705 7.87713L78.564 7.87713L78.564 4.21932C78.6364 3.66822 78.4648 3.11281 78.0962 2.70437C77.7275 2.29593 77.2001 2.07699 76.6576 2.10721C75.9423 2.04779 75.2673 2.45366 74.9698 3.1221L74.8833 3.1221L74.8833 0ZM2.64951 0.369904C3.61938 0.298671 4.56934 0.676329 5.23793 1.39893C5.90652 2.12153 6.22326 3.11291 6.10097 4.1002C6.10097 6.49859 4.83444 7.87724 2.64951 7.87724L0 7.87724L0 0.369904L2.64951 0.369904ZM71.109 0.801119L71.109 2.23745L72.3083 2.23745L72.3083 3.17925L71.109 3.17925L71.109 6.09247C71.109 6.68592 71.3479 6.94579 71.8917 6.94579C72.0309 6.94533 72.17 6.93672 72.3083 6.91998L72.3083 7.85132C72.1121 7.88724 71.9133 7.90636 71.714 7.90846C70.4991 7.90846 70.0153 7.47104 70.0153 6.37874L70.0153 3.1792L69.1365 3.1792L69.1365 2.2374L70.0153 2.2374L70.0153 0.801119L71.109 0.801119ZM2.52225 6.81554L1.13927 6.81554L1.13927 1.43081L2.52225 1.43081C3.21169 1.39165 3.88214 1.66988 4.35025 2.1894C4.81836 2.70891 5.03512 3.41535 4.94127 4.1155C5.04249 4.81856 4.8288 5.53087 4.35953 6.05466C3.89026 6.57845 3.21537 6.85794 2.52225 6.81554ZM23.4039 2.21165L22.3522 2.21165L22.3522 7.87713L23.4447 7.87713L23.4447 4.56274C23.4055 4.1857 23.5291 3.80995 23.7832 3.53399C24.0372 3.25803 24.3964 3.10938 24.7664 3.12702C25.5744 3.12702 25.9609 3.5798 25.9609 4.49026L25.9609 7.87707L27.0534 7.87707L27.0534 4.20948C27.1335 3.65554 26.9631 3.09438 26.5904 2.68445C26.2176 2.27452 25.683 2.0603 25.1374 2.10229C24.4328 2.04367 23.7694 2.44901 23.4855 3.11166L23.4039 3.11166L23.4039 2.21165ZM61.2864 2.21165L60.2348 2.21165L60.2348 7.87713L61.3272 7.87713L61.3272 4.56274C61.288 4.1857 61.4117 3.80995 61.6657 3.53399C61.9198 3.25803 62.2789 3.10938 62.649 3.12702C63.4569 3.12702 63.8435 3.5798 63.8435 4.49026L63.8435 7.87707L64.936 7.87707L64.936 4.20948C65.016 3.65554 64.8456 3.09438 64.4729 2.68445C64.1002 2.27452 63.5655 2.0603 63.0199 2.10229C62.3153 2.04367 61.6519 2.44901 61.368 3.11166L61.2864 3.11166L61.2864 2.21165ZM84.934 6.34741C84.6276 7.41608 83.6172 8.10656 82.5354 7.98648C81.7972 8.00642 81.0879 7.69328 80.5954 7.13016C80.103 6.56703 79.8773 5.81083 79.9783 5.06221C79.88 4.31151 80.1049 3.5541 80.5945 2.98621C81.0842 2.41833 81.7905 2.09584 82.5306 2.1023C84.0708 2.1023 85 3.1793 85 4.95836L85 5.34851L81.0911 5.34851L81.0911 5.41117C81.0566 5.83157 81.1968 6.24741 81.4775 6.55641C81.7582 6.86541 82.1532 7.0389 82.5654 7.03421C83.0998 7.09988 83.6201 6.82854 83.8823 6.34737L84.934 6.34741ZM32.6332 2.50568C31.7862 3.04358 31.3104 4.02638 31.4052 5.04194C31.3086 6.05856 31.784 7.04322 32.6317 7.58224C33.4795 8.12126 34.5526 8.12126 35.4003 7.58224C36.248 7.04322 36.7234 6.05856 36.6268 5.04194C36.7217 4.02638 36.2458 3.04358 35.3988 2.50568C34.5519 1.96778 33.4802 1.96778 32.6332 2.50568ZM39.8358 4.58364C38.5188 4.66719 37.7769 5.25511 37.7769 6.27493C37.7788 6.75847 37.9804 7.21865 38.3319 7.5417C38.6835 7.86475 39.1522 8.02051 39.6221 7.97048C40.2924 8.00221 40.9276 7.66239 41.2848 7.08095L41.3712 7.08095L41.3712 7.87714L42.4229 7.87714L42.4229 4.00616C42.4229 2.80941 41.6401 2.10231 40.2524 2.10231C38.9966 2.10231 38.1023 2.72648 37.9906 3.6996L39.0482 3.6996C39.1695 3.29905 39.5921 3.0699 40.2019 3.0699C40.9487 3.0699 41.3352 3.40778 41.3352 4.00616L41.3352 4.49517L39.8358 4.58364ZM7.3879 5.04194C7.29299 4.02645 7.76875 3.04367 8.61567 2.50578C9.46259 1.96789 10.5342 1.96789 11.3811 2.50578C12.2281 3.04367 12.7038 4.02645 12.6089 5.04194C12.7056 6.05852 12.2303 7.04321 11.3826 7.58226C10.535 8.1213 9.46185 8.1213 8.61418 7.58226C7.76651 7.04321 7.29118 6.05852 7.3879 5.04194ZM54.7757 2.50578C53.9288 3.04367 53.453 4.02645 53.548 5.04194C53.4512 6.05852 53.9266 7.04321 54.7742 7.58226C55.6219 8.1213 56.695 8.1213 57.5427 7.58226C58.3903 7.04321 58.8657 6.05852 58.769 5.04194C58.8639 4.02645 58.3881 3.04367 57.5412 2.50578C56.6943 1.96789 55.6226 1.96789 54.7757 2.50578ZM19.549 7.87713L18.4158 7.87713L17.2717 3.7045L17.1852 3.7045L16.046 7.87713L14.9235 7.87713L13.3976 2.21165L14.5057 2.21165L15.4973 6.53474L15.579 6.53474L16.7171 2.21165L17.7651 2.21165L18.9032 6.53474L18.9896 6.53474L19.9764 2.21165L21.0689 2.21165L19.549 7.87713ZM83.8871 4.52158L81.0911 4.52158C81.0862 4.13091 81.2356 3.75475 81.5055 3.47842C81.7753 3.20209 82.1428 3.04901 82.5245 3.05392C82.9011 3.04508 83.2639 3.19943 83.5234 3.47893C83.7829 3.75843 83.915 4.13709 83.8871 4.52158ZM10.0002 3.09571C10.9462 3.09571 11.4852 3.81387 11.4852 5.04194C11.4852 6.27493 10.9462 6.99248 10.0002 6.99249C9.05064 6.99249 8.51642 6.27986 8.51642 5.04195C8.51642 3.81387 9.05061 3.09571 10.0002 3.09571ZM35.5025 5.04194C35.5025 3.81387 34.9635 3.09571 34.0175 3.09571C33.0679 3.09571 32.5337 3.81387 32.5337 5.04195C32.5337 6.27986 33.068 6.99249 34.0175 6.99249C34.9635 6.99248 35.5026 6.27493 35.5025 5.04194ZM57.6453 5.04194C57.6453 3.81387 57.1062 3.09571 56.1603 3.09571C55.2107 3.09571 54.6765 3.81387 54.6765 5.04195C54.6765 6.27986 55.2107 6.99249 56.1603 6.99249C57.1063 6.99248 57.6453 6.27493 57.6453 5.04194ZM44.9872 5.04194C44.9872 6.2436 45.5406 6.96669 46.4662 6.96669C47.387 6.96669 47.956 6.23317 47.956 5.04686C47.956 3.86609 47.381 3.12211 46.4662 3.12211C45.5466 3.12211 44.9871 3.85011 44.9872 5.04194ZM41.3352 5.79082L41.3352 5.31717L39.9834 5.40563C39.2211 5.45784 38.8754 5.72324 38.8754 6.2227C38.8754 6.7326 39.3075 7.02933 39.9018 7.02933C40.2537 7.06578 40.6049 6.95454 40.8751 6.72107C41.1453 6.48761 41.3113 6.15191 41.3352 5.79082Z" transform="translate(43 9)" id="Download-on-the" fill="#FFFFFF" fill-rule="evenodd" stroke="none" />
    <path d="M16.3669 0C16.4871 1.56752 15.9906 3.1201 14.9829 4.32802C14.0052 5.5422 12.5238 6.24157 10.9635 6.22553C10.8643 4.70314 11.3752 3.2038 12.3838 2.05775C13.4051 0.896174 14.8273 0.16146 16.3669 0ZM21.3013 9.2104C19.5065 10.3121 18.4021 12.2551 18.375 14.3585C18.3775 16.7383 19.8049 18.886 22 19.8131C21.5778 21.1824 20.9415 22.4766 20.1145 23.6475C19.0038 25.3063 17.8394 26.927 15.9911 26.9569C15.1121 26.9772 14.5188 26.7248 13.9005 26.4618C13.2556 26.1875 12.5835 25.9017 11.5319 25.9017C9.4528 25.9017 8.80951 26.927 7.0871 26.9983C5.32694 27.0634 3.98175 25.2278 2.83074 23.5845C0.530217 20.2286 -1.26116 14.127 1.14044 9.97527C2.26819 7.95179 4.37681 6.66777 6.69481 6.59299C7.69309 6.57248 8.65102 6.95667 9.49086 7.2935C10.1331 7.55109 10.7064 7.78099 11.1758 7.78099C11.5884 7.78099 12.1456 7.56017 12.795 7.30282C13.818 6.89744 15.0696 6.40142 16.3451 6.5351C18.3272 6.59702 20.1639 7.58848 21.3013 9.2104Z" transform="translate(11 10)" id="Icon" fill="#FFFFFF" fill-rule="evenodd" stroke="none" />
  </g>
</svg>