<?xml version="1.0" encoding="utf-8"?>
<svg width="183px" height="32px" viewBox="0 0 183 32" version="1.1" xmlns:xlink="http://www.w3.org/1999/xlink" xmlns="http://www.w3.org/2000/svg">
  <desc>Created with Lunacy</desc>
  <g id="BlackBerry">
    <path d="M1.36361 0.32L2.28748 0.32L2.28748 0L0 0L0 0.32L0.923871 0.32L0.923871 2.98426L1.36361 2.98426L1.36361 0.32ZM4.37574 2.2049L4.36232 2.2049L3.51897 0L2.82632 0L2.82632 2.98426L3.2671 2.98426L3.2671 0.495484L3.28361 0.495484L4.20542 2.98426L4.5089 2.98426L5.43897 0.495484L5.45239 0.495484L5.45239 2.98426L5.8911 2.98426L5.8911 0L5.20671 0L4.37574 2.2049Z" transform="translate(176.0464 22.75406)" id="Fill-2" fill="#6994A8" fill-rule="evenodd" stroke="none" />
    <path d="M11.0999 10.5734C10.9296 10.9595 10.0274 12.7009 7.76361 12.7009C5.14374 12.7009 4.1249 10.5311 4.1249 8.91355C4.1249 6.24516 5.92103 3.84619 8.56878 3.84619C11.4147 3.84619 12.0939 5.96645 12.1559 6.35148L16.352 6.35148C16.5997 4.78864 15.3579 0 8.72878 0C3.872 0 0 3.86994 0 9.04671C0 13.2821 2.64774 16.5461 7.5551 16.5461C13.664 16.5461 15.3136 11.7543 15.5252 10.5734L11.0999 10.5734" transform="translate(77.72903 9.511226)" id="Fill-3" fill="#6994A8" stroke="none" />
    <path d="M3.94013 16.2859C3.94013 16.0413 4.00516 15.5788 4.21781 14.6054C4.43458 13.633 7.38993 0 7.38993 0L3.4591 0L0.197161 15.0348C0.0588387 15.6604 0 16.2932 0 16.8434C0 20.1373 2.54865 21.1066 4.59871 21.1066C5.32852 21.1066 6.00464 20.991 6.16774 20.9631C6.24 20.6369 6.85523 17.8023 6.88206 17.6764C6.79329 17.6898 6.36593 17.7208 5.86116 17.7208C4.40052 17.7208 3.94013 17.0994 3.94013 16.2859" transform="translate(52.74116 4.968258)" id="Fill-4" fill="#6994A8" stroke="none" />
    <path d="M18.6085 4.62348L13.1252 4.62348L6.08413 10.9698L8.45523 0L4.50374 0L0 20.8062L3.96181 20.8062L5.05394 15.7481L7.49007 13.8157L10.8542 20.8062L15.2578 20.8062L10.4846 11.4436L18.6085 4.62348" transform="translate(93.90555 4.936258)" id="Fill-5" fill="#6994A8" stroke="none" />
    <path d="M3.2763 0C3.2763 0 0.491272 12.8857 0.158885 14.3752C-0.635954 17.9572 1.60095 20.8062 5.75888 20.8062L8.01747 20.8062C12.9713 20.8062 16.1661 17.9045 16.1661 14.4454C16.1661 11.2599 13.6753 10.272 13.2417 10.1295C13.7114 9.98503 17.5421 8.90839 17.5421 4.85471C17.5421 3.01935 16.2074 0 10.7726 0L3.2763 0ZM10.5744 3.85032C12.4675 3.85032 13.2335 4.71948 13.2335 5.73523C13.2335 6.96877 12.0866 8.05264 9.8363 8.05264L5.65979 8.05264L6.57024 3.85032L10.5744 3.85032ZM11.8895 14.1182C11.8895 13.1386 11.2588 11.9019 8.45927 11.9019L4.82882 11.9019L3.74082 16.9342L7.85643 16.9342C10.5155 16.9342 11.8895 15.7337 11.8895 14.1182Z" transform="translate(34.91312 4.939355)" id="Fill-6" fill="#6994A8" fill-rule="evenodd" stroke="none" />
    <path d="M3.27461 0C3.27461 0 0.489573 12.8857 0.156153 14.3752C-0.630427 17.9572 1.60338 20.8062 5.75719 20.8062L8.01886 20.8062C12.9727 20.8062 16.1665 17.9045 16.1665 14.4454C16.1665 11.2599 13.6736 10.272 13.24 10.1295C13.7128 9.98503 17.5435 8.90839 17.5435 4.85471C17.5435 3.01935 16.2036 0 10.7678 0L3.27461 0ZM10.5768 3.85032C12.4648 3.85032 13.2338 4.71948 13.2338 5.73523C13.2338 6.96877 12.087 8.05264 9.83667 8.05264L5.66428 8.05264L6.56854 3.85032L10.5768 3.85032ZM11.8878 14.1182C11.8878 13.1386 11.256 11.9019 8.45964 11.9019L4.83022 11.9019L3.74325 16.9342L7.8537 16.9342C10.5169 16.9342 11.8878 15.7337 11.8878 14.1182Z" transform="translate(110.5556 4.939355)" id="Fill-7" fill="#6994A8" fill-rule="evenodd" stroke="none" />
    <path d="M9.94064 0C5.74968 0 2.90064 2.48465 1.93342 7.14426C1.52671 9.1489 0 16.191 0 16.191L3.93187 16.191C3.93187 16.191 5.37703 9.49368 5.83535 7.38684C6.43303 4.63587 7.89368 3.69445 9.85393 3.69445C10.4867 3.69445 10.8893 3.76774 11.0988 3.80181C11.2103 3.24026 11.7543 0.754581 11.8844 0.144516C11.4632 0.0908387 10.7912 0 9.94064 0" transform="translate(145.3368 9.568)" id="Fill-8" fill="#6994A8" stroke="none" />
    <path d="M13.9272 22.3917L27.1133 0.0103226L22.8697 0.0103226L16.8103 10.5435L15.391 0C15.391 0 13.2356 0 10.8521 0C5.65574 0 2.95948 2.38142 2.00155 6.93161C1.52155 9.19845 0 16.2013 0 16.2013L3.92981 16.2013C3.92981 16.2013 5.37187 9.55355 5.94994 6.87587C6.50013 4.27148 8.43252 3.46839 10.5146 3.91329L11.3445 0.091871C11.9546 3.72129 13.8292 15.3166 13.8292 15.3166L9.71665 22.3917L13.9272 22.3917" transform="translate(154.7262 9.557677)" id="Fill-9" fill="#6994A8" stroke="none" />
    <path d="M9.60826 3.38684C7.08955 3.38684 6.07794 4.94968 5.98297 5.10658L1.54323 5.10658C1.83432 4.42942 3.60568 0 9.76103 0C14.5569 0 16.4253 2.41032 15.7347 5.81368C15.3683 7.616 14.6477 10.8779 14.3917 12.0186C13.9117 14.1688 14.1956 15.5117 14.3443 16.2137L10.2761 16.2137C10.2338 15.7006 10.177 15.0627 10.1646 14.6354C10.0294 14.7706 8.49135 16.5461 5.54116 16.5461C1.99329 16.5461 0 14.2059 0 11.8008C0 8.41084 2.96877 6.95019 7.66864 6.27819C10.3979 5.88594 11.9763 5.62994 11.9763 4.65135C11.9763 3.96284 11.1742 3.38684 9.60826 3.38684ZM11.1938 8.76077C10.8532 8.80723 8.31793 9.19536 7.44981 9.32026C4.76284 9.72387 4.08155 10.6003 4.08155 11.3352C4.08155 12.2364 4.90529 12.992 6.30606 12.992C8.50374 12.992 10.496 11.7326 10.9543 9.77652C11.0317 9.45652 11.1298 9.02916 11.1938 8.76077Z" transform="translate(60.5791 9.528774)" id="Fill-10" fill="#6994A8" fill-rule="evenodd" stroke="none" />
    <path d="M7.67794 13.0395C9.81987 13.0395 10.7716 11.7058 10.911 11.3899L15.3951 11.3899C15.2444 11.8338 13.6258 16.5461 7.61497 16.5461C2.74994 16.5461 0 13.2986 0 8.72155C0 3.98348 3.80077 0 8.54297 0C13.728 0 16.2963 3.46942 16.2963 7.25574C16.2963 8.35303 16.0268 9.41935 15.9608 9.71458L3.97729 9.71458C3.9009 10.432 4.60181 13.0395 7.67794 13.0395ZM12.1373 6.50426C12.2446 5.20774 11.2341 3.59226 8.58529 3.59226C6.02529 3.59226 4.76181 5.67845 4.56361 6.50426L12.1373 6.50426Z" transform="translate(128.641 9.511226)" id="Fill-11" fill="#6994A8" fill-rule="evenodd" stroke="none" />
    <path d="M8.25703 2.26477C8.25703 1.26348 7.64284 0 5.07665 0C4.01858 0 1.11794 0 1.11794 0L0 5.19948C0 5.19948 2.13368 5.19948 4.11458 5.19948C7.33832 5.19948 8.25703 3.6769 8.25703 2.26477" transform="translate(1.952 0.3024516)" id="Fill-12" fill="#6994A8" stroke="none" />
    <path d="M8.25394 2.26477C8.25394 1.26348 7.64387 0 5.07458 0C4.02374 0 1.1231 0 1.1231 0L0 5.19948C0 5.19948 2.13368 5.19948 4.11665 5.19948C7.33935 5.19948 8.25394 3.6769 8.25394 2.26477" transform="translate(12.60387 0.3024516)" id="Fill-13" fill="#6994A8" stroke="none" />
    <path d="M8.26013 2.25858C8.26013 1.25832 7.64697 0 5.07768 0C4.02581 0 1.12516 0 1.12516 0L0 5.19123C0 5.19123 2.13781 5.19123 4.1249 5.19123C7.34039 5.19123 8.26013 3.66968 8.26013 2.25858" transform="translate(0.5202581 8.132129)" id="Fill-14" fill="#6994A8" stroke="none" />
    <path d="M8.256 2.25858C8.256 1.25832 7.6449 0 5.07974 0C4.02168 0 1.1231 0 1.1231 0L0 5.19123C0 5.19123 2.13574 5.19123 4.11768 5.19123C7.33935 5.19123 8.256 3.66968 8.256 2.25858" transform="translate(11.17419 8.132129)" id="Fill-15" fill="#6994A8" stroke="none" />
    <path d="M8.25703 2.26477C8.25703 1.26452 7.64903 0 5.08077 0C4.02271 0 1.12619 0 1.12619 0L0 5.20052C0 5.20052 2.13574 5.20052 4.11871 5.20052C7.34142 5.20052 8.25703 3.6769 8.25703 2.26477" transform="translate(22.31742 4.953806)" id="Fill-16" fill="#6994A8" stroke="none" />
    <path d="M8.256 2.26477C8.256 1.26761 7.6449 0 5.07561 0C4.02271 0 1.12103 0 1.12103 0L0 5.19845C0 5.19845 2.13781 5.19845 4.11974 5.19845C7.33832 5.19845 8.256 3.67794 8.256 2.26477" transform="translate(20.78452 13.10142)" id="Fill-17" fill="#6994A8" stroke="none" />
    <path d="M8.25497 2.26477C8.25497 1.26658 7.64697 0 5.08181 0C4.02374 0 1.1231 0 1.1231 0L0 5.20155C0 5.20155 2.13987 5.20155 4.12697 5.20155C7.34142 5.20155 8.25497 3.68206 8.25497 2.26477" transform="translate(9.643354 16.27252)" id="Fill-18" fill="#6994A8" stroke="none" />
  </g>
</svg>