<?xml version="1.0" encoding="utf-8"?>
<svg width="32px" height="32px" viewBox="0 0 32 32" version="1.1" 
    xmlns:xlink="http://www.w3.org/1999/xlink" 
    xmlns="http://www.w3.org/2000/svg">
    <desc>Created with Lunacy</desc>
    <g id="instagram">
        <path d="M10 0L22 0C27.522 0 32 4.478 32 10L32 22C32 27.522 27.522 32 22 32L10 32C4.478 32 0 27.522 0 22L0 10C0 4.478 4.478 0 10 0ZM22 29C25.86 29 29 25.86 29 22L29 10C29 6.14 25.86 3 22 3L10 3C6.14 3 3 6.14 3 10L3 22C3 25.86 6.14 29 10 29L22 29Z" id="Shape" fill="#FFFFFF" fill-rule="evenodd" stroke="none" />
        <path d="M0 8C0 3.582 3.582 0 8 0C12.418 0 16 3.582 16 8C16 12.418 12.418 16 8 16C3.582 16 0 12.418 0 8ZM3 8C3 10.756 5.244 13 8 13C10.756 13 13 10.756 13 8C13 5.242 10.756 3 8 3C5.244 3 3 5.242 3 8Z" transform="translate(8 8)" id="Shape" fill="#FFFFFF" fill-rule="evenodd" stroke="none" />
        <path d="M1.066 2.132C1.65474 2.132 2.132 1.65474 2.132 1.066C2.132 0.477264 1.65474 0 1.066 0C0.477264 0 0 0.477264 0 1.066C0 1.65474 0.477264 2.132 1.066 2.132Z" transform="translate(23.534 6.334)" id="Oval" fill="#FFFFFF" stroke="none" />
    </g>
</svg>