<?xml version="1.0" encoding="utf-8"?>
<svg width="236px" height="20px" viewBox="0 0 236 20" version="1.1" 
    xmlns:xlink="http://www.w3.org/1999/xlink" 
    xmlns="http://www.w3.org/2000/svg">
    <desc>Created with Lunacy</desc>
    <g id="radiohead-copy-2">
        <path d="M22.0387 1.33675C20.5512 0.446085 18.0327 0 14.4878 0L0 0L0 19.9985L5.93531 19.9985L5.93531 13.7623L13.5761 13.7623C14.9679 13.7623 16.015 13.9296 16.7205 14.2642C17.426 14.5987 17.7794 15.2016 17.7794 16.0741L17.7794 19.9985L23.9194 19.9985L23.9194 15.4457C23.9194 14.1512 23.5085 13.1505 22.6853 12.4422C21.862 11.7354 20.6086 11.3797 18.9238 11.3797C20.6675 11.2004 21.996 10.6141 22.9062 9.62399C23.8164 8.63386 24.2729 7.487 24.2729 6.18642C24.2729 3.84447 23.5277 2.22741 22.0387 1.33675ZM54.4738 20L44.3661 0L35.874 0L25.943 20L32.3187 20L34.1111 16.2595L46.3941 16.2595L48.2748 20L54.4738 20ZM82.9692 10.7693L82.9102 7.42069C82.9102 4.80748 82.006 2.91463 80.193 1.74968C78.38 0.584734 75.5169 0 71.5978 0L56.9642 0L56.9642 20L72.5669 20C76.7599 20 79.542 19.2013 80.9132 17.6023C82.2828 16.0048 82.9692 13.7262 82.9692 10.7693ZM92.6188 0L92.6188 20L86.9 20L86.9 0L92.6188 0ZM122.605 6.01462L122.605 13.7141C122.605 15.7592 121.678 17.319 119.828 18.3905C117.977 19.4635 115.896 20 113.584 20L111.174 20C108.999 20 107.575 19.9955 106.899 19.9925C106.306 19.9876 105.714 19.9741 105.121 19.9518C102.908 19.9518 100.992 19.3912 99.3759 18.2714C97.7603 17.1487 96.9517 15.625 96.9517 13.7021L96.9517 6.00859C96.9517 4.26645 97.7839 2.82872 99.4481 1.69844C101.114 0.566649 102.896 0 104.796 0L113.846 0C116.197 0 118.244 0.531987 119.988 1.59445C121.733 2.65692 122.605 4.13081 122.605 6.01462ZM151.901 20L151.901 0L145.76 0L145.76 7.62565L132.568 7.62565L132.568 0L126.516 0L126.516 20L132.568 20L132.568 11.9418L145.76 11.9418L145.76 20L151.901 20ZM176.989 15.7773L176.989 20L156.554 20L156.554 0L176.841 0L176.841 4.41263L162.412 4.41263L162.412 7.81704L176.165 7.81704L176.165 11.6525L162.412 11.6525L162.412 15.7773L176.989 15.7773ZM197.4 0L207.508 20L201.306 20L199.425 16.2595L187.142 16.2595L185.353 20L178.975 20L188.908 0L197.4 0ZM235.943 7.42069L236 10.7693C236 13.7262 235.312 16.0048 233.944 17.6023C232.571 19.2013 229.791 20 225.599 20L209.997 20L209.997 0L224.63 0C228.548 0 231.412 0.584734 233.225 1.74968C235.038 2.91463 235.943 4.80748 235.943 7.42069ZM35.9933 11.9418L44.5443 11.9418L40.2246 3.59732L35.9933 11.9418ZM197.577 11.9418L189.027 11.9418L193.255 3.59732L197.577 11.9418ZM116.435 8.20436L116.435 11.8243C116.435 13.2017 116.076 14.228 115.363 14.9047C114.647 15.5829 113.457 15.9204 111.793 15.9204L106.915 15.9204C105.581 15.9204 104.603 15.5633 103.975 14.8459C103.348 14.1255 103.034 13.1173 103.034 11.8228L103.034 8.05365C103.034 6.71841 103.351 5.68156 103.989 4.94311C104.625 4.20616 105.6 3.83694 106.914 3.83694L111.791 3.83694C113.437 3.83694 114.621 4.22123 115.347 4.98832C116.071 5.75541 116.435 6.82842 116.435 8.20436ZM70.7171 16.0184C73.2635 16.0184 74.8983 15.6024 75.6229 14.7645C76.349 13.9296 76.7098 12.5868 76.7098 10.7347L76.7098 7.74621C76.7098 6.61894 76.3181 5.77349 75.536 5.20986C74.751 4.64622 73.2635 4.3629 71.0705 4.3629L63.0189 4.3629L63.0189 16.0169L70.7171 16.0169L70.7171 16.0184ZM228.654 14.7645C227.929 15.6024 226.294 16.0184 223.746 16.0184L223.746 16.0169L216.048 16.0169L216.048 4.3629L224.1 4.3629C226.294 4.3629 227.782 4.64622 228.564 5.20986C229.349 5.77349 229.741 6.61894 229.741 7.74621L229.741 10.7347C229.741 12.5868 229.378 13.9296 228.654 14.7645ZM17.0578 8.95336C16.4215 9.2834 15.261 9.44767 13.5761 9.44767L5.93384 9.44767L5.93384 4.41263L13.9281 4.41263C15.7293 4.41263 16.8604 4.598 17.3214 4.96722C17.7809 5.33645 18.0121 5.99201 18.0121 6.9309C18.0121 7.94967 17.694 8.62482 17.0578 8.95336Z" id="Shape" fill="#F9F8FF" fill-rule="evenodd" stroke="none" />
    </g>
</svg>