<?xml version="1.0" encoding="utf-8"?>
<svg width="173px" height="32px" viewBox="0 0 173 32" version="1.1" 
    xmlns:xlink="http://www.w3.org/1999/xlink" 
    xmlns="http://www.w3.org/2000/svg">
    <desc>Created with Lunacy</desc>
    <g id="playstation-wordmark">
        <path d="M0 23.1324L0 0.000506057L8.21639 0.00101211C8.21639 0.00101211 11.1121 0.00101211 12.7182 0.709492C14.6583 1.56928 15.6075 4.10058 15.6075 6.60961C15.6075 9.37116 15.2076 11.4338 13.6337 12.9682C12.3499 14.2197 9.36506 14.1003 9.36506 14.1003L6.05676 14.1003L6.05676 12.0472L8.35727 12.0472C9.32126 12.0472 10.3755 11.8377 11.0176 10.7922C11.4408 10.108 11.5205 8.23911 11.5205 7.02964C11.5205 5.89961 11.3859 4.22608 10.6493 3.30354C9.78242 2.21754 7.25028 2.21754 7.25028 2.21754L3.76523 2.21754L3.76523 23.1324L0 23.1324ZM18.5665 23.1329L22.3312 23.1329L22.3312 0.00101211L18.5665 0.00101211L18.5665 23.1329ZM42.3615 5.39608L49.2498 22.7108L45.2951 32L48.4203 32L59.8084 5.39608L56.3191 5.39608L51.3582 18.3628L46.743 5.39608L42.3615 5.39608ZM62.6434 22.9952L62.6434 20.8091C62.6434 20.8091 66.6249 20.9588 67.4544 20.9588C69.2916 20.9588 70.2092 20.5834 70.8998 19.8729C71.3077 19.4468 71.676 17.5597 71.676 16.8871C71.676 16.2171 71.5415 14.7683 71.2681 14.1747C70.9859 13.5932 70.3442 13.0502 69.3824 12.9718C68.6964 12.9151 67.6359 12.782 66.3959 12.7273C64.6574 12.6484 63.5082 11.7785 62.9547 11.153C62.4059 10.527 61.6709 9.58421 61.6709 6.69969C61.6709 3.81162 62.4497 2.19274 63.2306 1.44176C64.0115 0.686719 65.1539 0.355758 66.0319 0.206471C67.0418 0.0409906 68.6917 0.0308695 68.6917 0.0308695L73.9617 0.178132L73.9617 2.3643C73.9617 2.3643 70.1189 2.21704 69.2921 2.21704C67.4544 2.21704 66.903 2.59455 66.215 3.30303C65.8087 3.72458 65.491 4.89155 65.491 5.56005C65.491 6.23158 65.5728 7.58832 65.8488 8.17535C66.1221 8.75731 66.7663 9.30183 67.7303 9.38482C68.4141 9.43543 69.4768 9.56852 70.7147 9.62267C72.4611 9.70162 73.6082 10.5695 74.1554 11.1975C74.7094 11.825 75.4455 13.1474 75.4455 16.0294C75.4455 18.9179 74.6603 20.9811 73.8836 21.7341C73.1012 22.4846 71.9604 22.8201 71.0829 22.9654C70.0704 23.1324 68.4205 23.145 68.4205 23.145L62.6434 22.9952ZM83.1864 2.21653L79.4233 2.21653L79.4233 19.1988C79.4233 19.1988 79.5135 20.7488 79.6064 21.2939C79.6988 21.8389 80.5261 23.1329 82.6831 23.1329L86.5829 23.06L86.5829 20.8819C86.5829 20.8819 85.5265 20.9548 84.8891 20.9548C84.2428 20.9548 83.4598 20.9143 83.3273 19.8668C83.1859 18.8213 83.1859 17.5718 83.1859 17.5718L83.1859 7.57213L87.4376 7.57213L87.4376 5.39608L83.1859 5.39608L83.1859 2.21704M119.52 23.1329L123.283 23.1329L123.283 5.3971L119.52 5.3971L119.52 23.1329ZM119.52 3.22004L123.283 3.22004L123.283 0L119.52 0L119.52 3.22004ZM135.178 5.24477C137.74 5.24477 139.727 5.79385 140.793 6.62125C141.871 7.45118 143.194 9.20113 143.194 14.2652C143.194 19.3299 141.871 21.0778 140.793 21.9097C139.726 22.7371 137.74 23.2903 135.178 23.2903C132.61 23.2903 130.632 22.7371 129.557 21.9097C128.482 21.0778 127.164 19.3299 127.164 14.2652C127.164 9.20113 128.482 7.45068 129.557 6.62125C130.632 5.79385 132.61 5.24477 135.178 5.24477ZM132.598 8.64548C132.08 9.2578 131.449 10.5432 131.449 14.2652C131.449 17.9858 132.08 19.2732 132.598 19.8825C133.114 20.4887 134.065 20.8981 135.296 20.8981C136.529 20.8981 137.476 20.4882 137.999 19.883C138.514 19.2732 139.145 17.9853 139.145 14.2657C139.145 10.5432 138.514 9.2573 137.999 8.64598C137.476 8.03871 136.529 7.63235 135.296 7.63235C134.065 7.63235 133.114 8.03821 132.598 8.64598M150.992 7.8869L154.684 7.73761C155.649 7.73761 156.786 7.9876 157.338 8.65813C157.851 9.28969 158.175 10.0427 158.175 11.2557L158.175 23.1126L161.944 23.1126L161.944 10.9571C161.944 8.65813 161.206 7.32163 160.099 6.48208C158.52 5.28121 155.692 5.39608 155.692 5.39608L147.259 5.54132L147.259 23.1126L150.992 23.1126L150.992 7.8869ZM112.023 2.21653L108.258 2.21653L108.258 19.1988C108.258 19.1988 108.347 20.7488 108.438 21.2939C108.532 21.8389 109.353 23.1329 111.519 23.1329L115.418 23.06L115.418 20.8819C115.418 20.8819 114.359 20.9548 113.72 20.9548C113.08 20.9548 112.295 20.9143 112.158 19.8668C112.023 18.8213 112.023 17.5718 112.023 17.5718L112.023 7.57213L116.264 7.57213L116.264 5.39608L112.023 5.39608L112.023 2.21653ZM36.6181 11.2557C36.6181 10.0427 36.2963 9.28969 35.7781 8.65813C35.2267 7.9876 34.0949 7.7371 33.1262 7.7371L28.1611 7.8869L28.1611 5.54132L34.1366 5.39608C34.1366 5.39608 36.9648 5.2807 38.5456 6.48208C39.6483 7.32214 40.3807 8.65813 40.3807 10.9571L40.3807 22.9431L33.1663 23.0924C33.1663 23.0924 29.9002 23.1035 28.254 22.4649C26.6505 21.8389 25.7751 20.1213 25.7751 17.7373C25.7751 15.4363 26.5096 14.0998 27.6124 13.2602C29.1927 12.0573 32.0192 12.1762 32.0192 12.1762L34.3239 12.1762L34.3239 14.2192L33.0312 14.2192C32.0635 14.2192 31.0684 14.3907 30.5144 15.0608C29.9989 15.6862 29.7229 16.2297 29.7229 17.4428C29.7229 19.0353 30.0448 19.7453 30.8257 20.2868C31.5164 20.7691 32.7516 20.8738 34.1303 20.8738L36.6181 20.7286L36.6181 11.2557ZM100.098 11.2557C100.098 10.0427 99.7833 9.28969 99.2652 8.65813C98.7075 7.9876 97.5751 7.7371 96.6138 7.7371L91.6508 7.8869L91.6508 5.54132L97.6216 5.39608C97.6216 5.39608 100.448 5.2807 102.027 6.48208C103.13 7.32214 103.866 8.65813 103.866 10.9571L103.866 22.9431L96.6513 23.0924C96.6513 23.0924 93.3809 23.1035 91.7389 22.4649C90.1333 21.8389 89.2559 20.1213 89.2559 17.7373C89.2559 15.4363 89.9967 14.0998 91.0931 13.2602C92.6718 12.0573 95.5042 12.1762 95.5042 12.1762L97.8068 12.1762L97.8068 14.2192L96.5125 14.2192C95.5506 14.2192 94.5491 14.3907 94.002 15.0608C93.4838 15.6862 93.2063 16.2297 93.2063 17.4428C93.2063 19.0353 93.5303 19.7453 94.3091 20.2868C94.9971 20.7691 96.2392 20.8738 97.6174 20.8738L100.099 20.7286L100.098 11.2557ZM168.767 23.2781C169.743 23.2803 170.679 22.9097 171.369 22.2484C172.059 21.5871 172.446 20.6895 172.444 19.7539C172.447 18.818 172.059 17.92 171.369 17.2591C170.679 16.597 169.743 16.2263 168.767 16.2292C166.749 16.2292 165.093 17.8102 165.093 19.7539C165.093 20.6942 165.472 21.5808 166.172 22.2488C166.861 22.9087 167.794 23.279 168.767 23.2781L168.767 23.2781ZM165.71 19.7539C165.71 18.9706 166.032 18.2337 166.606 17.6806C167.178 17.129 167.956 16.8188 168.767 16.8188C169.584 16.8188 170.354 17.1275 170.931 17.6806C171.505 18.2297 171.828 18.9759 171.828 19.7539C171.828 21.3708 170.457 22.6891 168.767 22.6891C167.956 22.6888 167.179 22.3793 166.606 21.8288C166.031 21.279 165.709 20.5324 165.709 19.7539" id="Shape" fill="#6994A8" fill-rule="evenodd" stroke="none" />
        <path d="M3.3766 3.16951C3.40068 3.25204 3.44446 3.30706 3.50138 3.3254L3.50083 3.32494L3.55556 3.34694L3.55556 3.55556L2.73685 3.55556L2.70675 3.51154C2.68213 3.47486 2.67173 3.43131 2.65203 3.37629C2.63889 3.32494 2.63014 3.23737 2.62138 3.09845L2.58909 2.52992C2.57979 2.33736 2.49879 2.21128 2.3483 2.14938C2.25909 2.11591 2.10203 2.09757 1.89243 2.09757L0.73333 2.09757L0.73333 3.55556L0 3.55556L0 0L1.97069 0C2.29412 0 2.5579 0.0366788 2.7768 0.119206C3.18889 0.274633 3.40068 0.571273 3.40068 0.991704C3.40068 1.21132 3.34431 1.39196 3.23705 1.53501C3.15605 1.64092 3.04277 1.72482 2.91635 1.79451C3.01924 1.84586 3.10844 1.90088 3.167 1.96965C3.25894 2.07235 3.31367 2.22641 3.32242 2.44189L3.33993 2.90084C3.34111 2.99121 3.3534 3.08125 3.3766 3.16951ZM2.47307 1.43964C2.59073 1.36675 2.65203 1.2347 2.65203 1.03572C2.65203 0.827108 2.56939 0.684977 2.39427 0.61162C2.29412 0.571273 2.15402 0.551558 1.98656 0.551558L0.73333 0.551558L0.73333 1.55656L1.91432 1.55656C2.15019 1.55656 2.3379 1.51484 2.47307 1.43964Z" transform="translate(167.1111 17.77778)" id="Shape" fill="#6994A8" fill-rule="evenodd" stroke="none" />
    </g>
</svg>