<?xml version="1.0" encoding="utf-8"?>
<svg width="111px" height="26px" viewBox="0 0 111 26" version="1.1" 
    xmlns:xlink="http://www.w3.org/1999/xlink" 
    xmlns="http://www.w3.org/2000/svg">
    <desc>Created with Lunacy</desc>
    <g id="redbull">
        <path d="M97.2121 0L101.974 0L101.974 25.2231L97.2121 25.2231L97.2121 0ZM110 0L105.3 0L105.3 25.2231L110 25.2231L110 0ZM47.203 0.000322757L47.203 11.4379C47.203 11.4379 44.874 9.66431 42.2108 9.66431C39.5502 9.66431 35.0588 11.5205 35.0588 17.3779C35.0588 23.2356 38.8852 25.4645 42.1702 25.4645C45.4561 25.4645 47.286 23.3189 47.286 23.3189L47.286 25.2238L52.0261 25.2238L52.0261 0.000322757L47.203 0.000322757ZM0 0.486395L0 25.2228L5.03192 25.2228L5.03192 5.20736L7.4026 5.20736C7.4026 5.20736 11.1034 5.04211 11.1034 8.38393C11.1034 11.7258 7.81777 11.6425 7.81777 11.6425L6.61161 11.6425L6.61161 17.3362L11.6445 25.2234L17.5491 25.2234L10.5213 15.1092C10.5213 15.1092 16.3019 14.6141 16.3019 8.38458C16.3019 2.15602 11.9351 0.487363 6.11346 0.487363L0 0.486395ZM75.7726 7.13422C75.7726 10.3563 73.5691 12.0566 73.5691 12.0566C76.2544 13.1314 77.7677 14.6122 77.7674 18.4788C77.7674 25.1395 70.3369 25.2231 70.3369 25.2231L59.9698 25.2231L59.9698 1.00442L68.3866 1.00442C73.4123 1.00442 75.7726 3.91052 75.7726 7.13422ZM69.514 21.0079L65.0023 21.0079L65.0023 5.22737L67.4137 5.22737C67.4137 5.22737 70.6909 4.98337 70.6909 7.81943C70.6909 10.6555 68.084 10.4054 68.084 10.4054L66.5824 10.4054L66.5824 14.6567L69.513 14.6567C70.2812 14.6567 72.7287 15.0263 72.7287 17.82C72.7283 20.6132 69.514 21.0079 69.514 21.0079ZM25.5764 9.66366C33.6444 9.66366 33.3115 17.4608 33.3115 17.4608L33.3115 18.6976L22.3744 18.6976C22.3744 20.4709 23.8711 21.9978 25.9092 21.9978C27.9467 21.9978 28.9866 20.059 28.9866 20.059L32.8537 21.9562C31.0658 24.6386 28.6538 25.7102 25.9509 25.7102C17.5497 25.7102 17.3835 18.7803 17.3835 17.9143C17.3835 17.0474 17.5091 9.66366 25.5764 9.66366ZM84.0071 10.4473L79.1838 10.4473L79.1838 18.9458C79.1838 18.9699 79.1837 18.9965 79.1836 19.0255C79.1786 20.2842 79.156 26 87.0016 26C95.0285 26 94.4042 19.1934 94.4042 19.1934L94.4042 10.4873L89.5395 10.4873L89.5395 18.9035C89.5395 18.9035 89.5795 21.7512 86.8773 21.7512C84.175 21.7512 84.0071 18.9035 84.0071 18.9035L84.0071 10.4473ZM28.4465 15.8506L22.457 15.8506C22.457 15.8506 22.7905 13.0462 25.4937 13.0465C28.197 13.0465 28.4465 15.8506 28.4465 15.8506ZM43.5345 21.3375L43.5426 21.3375C43.7918 21.3375 47.4103 21.2142 47.4103 17.5012C47.4103 13.7882 43.5836 13.6646 43.5836 13.6646C43.5836 13.6646 40.1737 13.7882 40.1737 17.5841C40.1737 21.3423 43.2326 21.3379 43.5345 21.3375Z" transform="translate(0.6157194 0)" id="Shape" fill="#6994A8" fill-rule="evenodd" stroke="none" />
    </g>
</svg>