<?xml version="1.0" encoding="utf-8"?>
<svg width="243px" height="25px" viewBox="0 0 243 25" version="1.1" 
    xmlns:xlink="http://www.w3.org/1999/xlink" 
    xmlns="http://www.w3.org/2000/svg">
    <desc>Created with Lunacy</desc>
    <g id="SENNHEISER_Basic_logo">
        <path d="M12.1333 25C14.5141 25 16.4576 24.9674 18.5357 21.5485L26.6151 7.95027C27.6864 6.08938 29.6985 4.80438 32.2126 4.80438L36 4.80438L36 0L23.8654 0C21.4859 0 19.5424 0.0339532 17.4967 3.45017L9.38495 17.0497C8.31227 18.8767 6.30149 20.1617 3.78736 20.1617L0 20.1617L0 25L12.1333 25ZM0 0L18.9045 0C18.2006 0.506686 17.4643 1.25104 16.7255 2.36758L2.34591 2.36758L2.34591 19.113L0 19.113L0 0ZM17.0942 25L36 25L36 5.88566L33.6541 5.88566L33.6541 22.5972L19.2745 22.5972C18.5706 23.715 17.8318 24.492 17.0942 25Z" transform="translate(0.6157194 0)" id="Fill-1" fill="#6994A8" fill-rule="evenodd" stroke="none" />
        <path d="M9.88795 14.9987C13.3401 14.9987 13.7088 11.438 12.6025 9.98855L8.51383 4.45024C8.0105 3.82286 8.14507 3.03258 8.94987 3.03258L13.3064 3.03258L13.3064 0L3.45211 0C-0.0336413 0 -0.402401 3.55943 0.703879 5.01018L4.82752 10.5154C5.32955 11.1746 5.19499 11.9331 4.35784 11.9331L0 11.9331L0 14.9987L9.88795 14.9987ZM31.7418 0L18.3009 0L18.3009 14.9987L31.7418 14.9987L31.7418 11.802L24.87 11.802L24.87 8.99847L31.7418 8.99847L31.7418 6.03207L24.87 6.03207L24.87 3.16365L31.7418 3.16365L31.7418 0ZM44.3444 0L37.4402 0L37.4402 14.9987L40.5571 14.9987L40.5571 5.70247L46.8261 14.9987L53.7639 14.9987L53.7639 0L50.6133 0L50.6133 9.32935L44.3444 0ZM59.0922 0L65.9977 0L72.2653 9.32935L72.2653 0L75.4173 0L75.4173 14.9987L68.5117 14.9987L62.2441 5.70247L62.2441 14.9987L59.0922 14.9987L59.0922 0ZM88.1207 0L81.4494 0L81.4494 14.9987L88.1207 14.9987L88.1207 9.32935L93.3817 9.32935L93.3817 14.9987L100.018 14.9987L100.018 0L93.3817 0L93.3817 5.70247L88.1207 5.70247L88.1207 0ZM119.762 0L106.321 0L106.321 14.9987L119.762 14.9987L119.762 11.802L112.891 11.802L112.891 8.99847L119.762 8.99847L119.762 6.03207L112.891 6.03207L112.891 3.16365L119.762 3.16365L119.762 0ZM125.325 15L131.962 15L131.962 0L125.325 0L125.325 15ZM149.693 9.98855C150.8 11.438 150.431 14.9987 146.945 14.9987L137.057 14.9987L137.057 11.9331L141.449 11.9331C142.252 11.9331 142.387 11.1746 141.917 10.5154L137.795 5.01018C136.655 3.55943 137.023 0 140.509 0L150.397 0L150.397 3.03258L146.041 3.03258C145.202 3.03258 145.069 3.82286 145.57 4.45024L149.693 9.98855ZM155.023 0L168.464 0L168.464 3.16365L161.592 3.16365L161.592 6.03207L168.464 6.03207L168.464 8.99847L161.592 8.99847L161.592 11.802L168.464 11.802L168.464 14.9987L155.023 14.9987L155.023 0ZM183.747 9.03283L180.933 9.03283L180.933 14.9987L174.329 14.9987L174.329 0L188.105 0C189.848 0 192.229 1.3184 192.529 4.08628C192.697 5.83482 191.993 7.44973 189.58 8.57088L193 14.9987L187.033 14.9987L183.747 9.03283ZM184.788 3.03258L180.933 3.03258L180.933 6.06516L184.788 6.06516C185.625 6.06516 186.329 5.37287 186.329 4.54823C186.329 3.69178 185.625 3.03258 184.788 3.03258Z" transform="translate(49.61572 5)" id="Fill-2" fill="#6994A8" fill-rule="evenodd" stroke="none" />
    </g>
</svg>