<?xml version="1.0" encoding="utf-8"?>
<svg width="125px" height="28px" viewBox="0 0 125 28" version="1.1" 
    xmlns:xlink="http://www.w3.org/1999/xlink" 
    xmlns="http://www.w3.org/2000/svg">
    <desc>Created with Lunacy</desc>
    <g id="tiktok-icon-white-1">
        <path d="M1.65899e-05 0.0464441C-0.00126777 0.708499 0.0720297 1.36705 0.217451 2C0.0741138 1.35053 0.000898567 0.677077 1.65899e-05 0L1.65899e-05 0.0464441ZM11 0.0464441L11 0C10.9981 0.676974 10.9249 1.35023 10.7826 2C10.927 1.36674 11.0002 0.708397 11 0.0464441Z" transform="translate(81.4808 16)" id="Shape" fill="none" fill-rule="evenodd" stroke="none" />
        <path d="M0 0L20.7123 0L18.7983 5.77611L13.3699 5.77611L13.3699 27.8835L6.71035 27.8835L6.71035 5.77611L0 5.77611L0 0ZM54.8918 5.77611L54.8918 0L75.6041 0L73.6901 5.77611L68.2705 5.77611L68.2705 27.8835L61.6022 27.8835L61.6022 5.77611L54.8918 5.77611ZM52.0494 6.4169L44.4019 6.4169L37.8109 13.0982L37.8109 0.0224054L31.315 0.0224054L31.2951 27.8835L37.8529 27.8835L37.8529 20.6241L39.893 18.7399L46.2585 27.8745L53.2695 27.8745L44.0483 14.5164L52.0494 6.4169ZM122.764 6.4169L114.77 14.5209L124 27.8745L116.987 27.8745L110.621 18.7399L108.561 20.6241L108.561 27.8835L102.001 27.8835L102.032 0.0224054L108.526 0.0224054L108.526 13.0982L115.119 6.4169L122.764 6.4169ZM25.2191 6.5827C27.0013 6.58146 28.4451 5.1159 28.4438 3.30927C28.4426 1.50265 26.9969 0.0390939 25.2146 0.0403312C23.4324 0.0415685 21.9887 1.50713 21.9899 3.31376C21.9899 4.18151 22.3302 5.01366 22.9359 5.62683C23.5417 6.24001 24.363 6.58389 25.2191 6.5827ZM97.9587 16.5979L97.9587 16.6024C97.9563 22.8962 92.8537 28 86.5604 28C80.2656 28 75.1621 22.8938 75.1621 16.5979C75.1621 10.302 80.2656 5.19581 86.5604 5.19581C92.8537 5.19581 97.9563 10.3018 97.9587 16.5979ZM28.5278 27.8835L21.9899 27.8835L21.9899 8.89493L28.5278 8.89493L28.5278 27.8835ZM88.7004 11.3608C90.7899 12.2382 92.1524 14.3052 92.1524 16.5979L92.1524 16.6024C92.1499 19.7313 89.647 22.2665 86.5604 22.2665C84.2987 22.2665 82.2596 20.8854 81.3941 18.7672C80.5286 16.649 81.007 14.2108 82.6063 12.5896C84.2056 10.9684 86.6108 10.4835 88.7004 11.3608Z" transform="translate(0.4807988 0)" id="Shape" fill="#6994A8" fill-rule="evenodd" stroke="none" />
    </g>
</svg>